<svg width="128" height="128" viewBox="0 0 128 128" fill="none" xmlns="http://www.w3.org/2000/svg">
  <rect width="128" height="128" rx="32" fill="#122033"/>
  <path d="M27 95L51.5 33H65.5L90.5 95H75.5L69.5 79H47.5L41.5 95H27ZM52 67.5H65L58.5 49L52 67.5Z" fill="#F5EFE6"/>
  <path d="M77 33H101.5C111.165 33 119 40.835 119 50.5C119 57.2854 115.126 63.1643 109.5 66.0819L120 95H105L96 69.5H90.5V95H77V33ZM90.5 45V58.5H101C104.59 58.5 107.5 55.5901 107.5 52C107.5 48.4099 104.59 45.5 101 45.5L90.5 45Z" fill="#F2684A"/>
</svg>
